Patient4_TMGait_0pt2_03_right_19_EMG.mot
version=1
nRows=40
nColumns=33
inDegrees=no
endheader
time	1LAddLong	2LGlutMax	3LGlutMed	4LIliopsoas	5LSemiMemb	6LBicFemLong	7LRecFem	8LVastMed	9LVastLat	10LGasMed	11LTibAnt	12lTibPost	13LPeroneusLong	14LSol	15LExtDigLong	16LFlexDigLong	17RAddLong	18RGlutMax	19RGlutMed	20RIliopsoas	21RSemiMemb	22RBicFemLong	23RRecFem	24RVastMed	25RVastLat	26RGasMed	27RTibAnt	28RTibPost	29RPeroneusLong	30RSol	31RExtDigLong	32RFlexDigLong
43.048	0.009766	0.24521	0.13046	0.030823	0.016327	-0.16586	0.094452	-0.010986	-0.09552	-0.1619	-0.019073	0.003357	-0.13901	0.2327	0.002594	-0.007629	0.068054	-0.045624	-0.62088	0.039215	0.12558	0.000153	-0.22324	0.027618	0.042419	-0.003204	-0.18845	-0.000763	-0.20844	0.0737	-0.003357	-0.009613
43.049	0.014343	0.23895	0.22675	0.040131	-0.009766	-0.080872	0.14801	-0.012512	-0.13046	-0.073853	0.049896	0.00473	-0.065765	0.16876	-0.15961	-0.010986	0.076294	-0.059509	-0.80887	0.17364	0.13016	0.011444	-0.2121	0.061798	0.014954	-0.002441	0.15106	-0.001373	0.11322	0.002594	-0.00412	-0.009155
43.05	-0.001373	0.24811	0.16342	-0.016785	-0.009766	-0.007477	0.14954	0.015106	-0.16449	-0.003052	0.020294	0.003967	-0.052948	0.087128	-0.16007	-0.013275	0.11398	-0.050964	-0.04303	0.12116	0.12558	-0.00473	-0.27542	0.041504	0.048523	0.004883	0.18127	-0.003815	0.48553	0.001373	-0.000916	0.008392
43.051	-0.020905	0.24628	0.12634	-0.011902	-0.003815	0.049286	0.17716	0.027466	-0.1828	0.040894	-0.014496	-0.002747	0.053711	0.10895	-0.011902	-0.000763	0.11765	-0.048828	0.30258	0.038452	0.14801	0.00061	-0.32379	-0.013428	0.057526	0.004883	-0.112	-0.003357	0.25971	-0.034027	-0.007782	0.00061
43.052	-0.02121	0.26169	0.058594	-0.00412	0.016022	0.063324	0.1181	0.030975	-0.17822	0.037231	0.029449	-0.002594	-0.39581	-0.006561	0.067444	-0.00885	0.054626	0.00412	0.38483	0.072632	0.13107	-0.012512	-0.40726	-0.023346	0.015717	-0.00061	-0.22476	-0.002899	-0.027161	-0.02182	-0.000458	0.003967
43.053	-0.00946	0.25406	0.009155	0.028229	0.014801	0.032654	0.094147	0.024719	-0.17441	0.063629	0.038757	-0.000305	-0.15305	-0.08728	0.053101	-0.006104	-0.012512	-0.13077	0.65597	0.15015	0.14389	-0.011597	-0.40619	-0.043793	0.039978	0.006256	-0.34759	-0.000458	-0.035858	-0.02243	-0.000458	0.011292
43.054	-0.01709	0.26627	-0.12817	0.041809	0.023346	-0.018921	-0.00824	0.026093	-0.14191	0.046997	0.028992	-0.002136	0.11414	-0.014191	0.015869	-0.010834	-0.080719	-0.17212	-0.62759	0.27603	0.12878	-0.018005	-0.43304	-0.00946	0.02594	0.00824	-0.69565	-0.002899	-0.022278	0.0383	-0.004272	0.02182
43.055	0.001068	0.30441	-0.38711	0.027008	0.019684	-0.0383	-0.16022	0.012054	-0.050812	0.007477	-0.007782	-0.00412	0.27176	0.050812	0.062866	-0.004425	-0.12085	-0.112	-1.0925	0.14084	0.13641	-0.011444	-0.44525	0.054932	0.045319	0.010986	-0.52445	-0.001221	0.10178	-0.1236	-0.002289	0.017242
43.056	-0.001831	0.34347	-0.32593	0.003204	0.006866	-0.039368	-0.12421	-0.018005	0.021667	-0.08728	0.004425	-0.00351	-0.10025	-0.045929	0.081482	-0.001068	-0.08606	-0.073395	-0.69977	0.04715	0.14679	0.013275	-0.42175	0.069275	0.042877	0.005341	0.14923	-0.002441	-0.051727	-0.16144	-0.000458	0.009308
43.057	0.003204	0.37994	0.10071	-0.012817	0.023804	-0.055084	-0.10422	-0.01297	0.007172	-0.02594	-0.032501	-0.005035	0.58762	-0.21576	0.031433	-0.000763	-0.067444	-0.013885	-0.88318	0.066376	0.14999	0.004272	-0.34134	0.12955	0.035248	0.005493	0.81986	-0.003357	-0.26733	-0.10208	0.000305	-0.000458
43.058	-0.017395	0.30441	0.10681	-0.000458	0.013428	0.006409	-0.11719	0.00885	-0.027313	-0.035706	-0.008698	-0.002289	0.63614	-0.30319	0.071564	-0.009613	-0.045471	-0.026398	-0.71152	0.10529	0.15228	0.019073	-0.298	0.13748	0.028839	0.003204	0.85983	-0.006561	-0.14069	-0.064392	-0.004272	0.001831
43.059	0.035248	0.2327	-0.013123	-0.003052	0.023804	0.000916	-0.1326	0.003204	0.054321	-0.071564	-0.018158	0.000763	-0.059967	-0.3801	-0.004425	-0.011902	-0.046997	-0.042267	-0.63812	0.16602	0.14862	0.016479	-0.23697	0.10925	0.027618	0.005798	0.93414	-0.001831	-0.064545	0.009918	-0.005951	-0.00412
43.06	0.032806	0.2562	-0.14587	0.010071	0.022278	-0.004425	-0.11871	0.012817	0.10819	-0.11459	-0.031128	-0.00351	-0.4303	-0.19012	-0.003052	-0.010834	-0.033569	-0.074921	-0.53726	0.092468	0.13855	-0.012665	-0.25711	0.1091	0.009155	0.000305	0.89752	-0.007324	-0.10757	0.052643	-0.00473	-0.014954
43.061	0.019836	0.27252	-0.25513	0.027313	0.015411	0.029602	0.005035	0.028839	0.20065	-0.14374	-0.034027	-0.01297	0.098114	0.24033	0.06897	0.008087	-0.024567	-0.015259	-0.48126	-0.12177	0.15045	0.007629	-0.3241	-0.009766	0.009155	0.002747	0.070496	-0.000153	-0.023956	0.049286	-0.00061	-0.010223
43.062	-0.007782	0.27908	-0.054932	-0.007629	0.010376	0.11429	0.056152	0.018616	0.19974	-0.050964	-0.049896	-0.008545	0.31586	0.33722	-0.079956	0.007477	-0.036316	-0.002136	-0.71686	-0.16342	0.14282	0.00946	-0.35172	0.010986	-0.004883	0.014038	-1.0385	-0.003357	0.008698	0.008698	-0.003662	-0.011444
43.063	-0.006409	0.23956	0.345	0.009308	0.017853	0.11185	0.016327	0.000153	0.13306	0.14496	-0.049591	-0.012512	0.35065	0.30716	-0.029144	0.010834	-0.014954	0.032654	-0.87128	-0.10391	0.14954	0.025787	-0.30212	0.06073	0.001221	0.005493	-0.63019	-0.001526	-0.063629	0.02121	0.001984	-0.011902
43.064	-0.000458	0.19623	0.46326	0.030823	0.005188	0.12268	-0.053864	0.063629	0.09964	0.10635	0.059204	-0.01297	-0.2095	0.18753	0.00473	0.009766	0.0383	-0.045624	-0.44708	-0.13962	0.14908	0.02594	-0.32532	-0.014648	0.002594	0.006256	-0.001221	-0.003204	-0.015869	0.038452	0.000153	-0.013733
43.065	-0.004578	0.14801	0.29572	0.007782	-0.011749	0.11307	-0.061646	0.006866	0.064392	-0.103	0.063324	-0.01358	-0.020294	0.052032	-0.025024	0.010071	0.049896	-0.10544	-0.78537	-0.11658	0.15274	0.059357	-0.33005	-0.012054	0.014954	0.007172	0.09903	-0.000153	-0.016937	-0.003204	-0.000153	-0.020447
43.066	-0.006561	0.12466	0.1062	0.001221	-0.055084	0.089264	-0.09964	0.012207	0.079498	-0.037079	0.002289	-0.019531	0.049133	0.091705	-0.011444	0.014954	0.083923	-0.14618	-0.000916	-0.12436	0.14252	0.033264	-0.33585	-0.028839	0.040894	-0.00473	0.063324	0.000305	-0.12314	0.046387	0.001068	-0.016479
43.067	-0.011292	0.15488	0.018311	-0.022125	-0.11368	0.045471	-0.074615	0.006714	0.11581	-0.05127	0.033264	-0.016785	-0.38986	0.044098	0.024109	-0.001526	0.067444	-0.086517	0.36865	-0.049591	0.14114	0.010986	-0.33981	-0.012054	0.043488	-0.005951	-0.29892	0.000916	-0.028839	0.067749	-0.006256	-0.022888
43.068	0.008087	0.11627	-0.041809	-0.027008	-0.16419	0.002899	-0.12039	-0.000458	0.1767	-0.18463	0.011139	-0.019531	-0.054016	0.010529	-0.020294	0.003815	0.043182	-0.14404	-0.71533	0.08316	0.1239	0.005798	-0.30151	-0.000916	0.0177	-0.010681	-0.20752	0.001373	-0.075378	0.018005	-0.000916	-0.018005
43.069	-0.015411	0.12146	-0.09903	0.007629	-0.005188	0.046997	-0.1207	0.001068	0.062561	-0.19211	-0.00473	-0.018158	-0.25467	0.11963	0.027771	0.013885	0.03067	-0.097198	-1.1328	0.075684	0.11734	-0.025177	-0.30441	-0.079193	0.023651	-0.012054	-0.058899	0.003357	-0.1683	-0.00473	0.002747	-0.010986
43.07	-0.036926	0.097656	-0.13718	0.028381	0.022278	0.031891	-0.12024	0.001526	-0.030212	-0.008392	0.012054	-0.020294	-0.21057	0.00946	-0.059967	-0.001221	-0.022125	-0.032654	-0.9549	-0.022583	0.10986	-0.033264	-0.27115	-0.075684	0.004272	-0.003967	0.089417	-0.001373	-0.17532	-0.054626	-0.001068	-0.007477
43.071	-0.029297	0.050507	-0.19821	0.019226	0.012817	0.009308	-0.043793	0.021515	-0.14893	0.048981	0.012512	-0.018158	-0.10086	-0.12238	-0.16022	0.013428	-0.057373	-0.009918	-0.48691	-0.17059	0.093536	-0.017853	-0.23331	-0.033875	0.001984	0.005646	0.37827	0.001373	-0.11261	-0.12741	-0.002289	-0.009613
43.072	-0.018311	0.075378	-0.099182	0.012054	0.070648	0.026093	-0.077972	0.031891	-0.21866	-0.063629	0.00473	-0.018768	-0.027924	0.040131	-0.074615	0.006866	-0.063629	-0.036621	0.26566	-0.24674	0.09491	-0.053711	-0.20844	-0.06546	-0.013733	0.008392	0.038147	0.002899	0.062408	-0.24078	-0.000916	-0.002594
43.073	-0.011597	0.12253	-0.024109	0.008698	0.10819	0.043335	-0.086365	0.031281	-0.17181	-0.12054	0.005341	-0.008087	0.36285	0.013733	-0.014496	0.020294	-0.057373	-0.038147	0.92895	-0.17288	0.089111	-0.061646	-0.15549	-0.091858	-0.015564	0.016785	0.67017	0.000305	-0.001678	-0.34103	-0.001068	-0.005798
43.074	-0.009918	0.089264	-0.19577	0.005798	0.095215	0.10727	-0.028992	0.025787	-0.098267	-0.071564	0.019073	0.000763	0.17868	-0.070496	0.065613	0.011292	-0.042114	-0.068207	0.061951	-0.058746	0.086517	-0.058289	-0.15243	-0.054016	-0.015564	0.008698	0.99182	0.003967	-0.013275	-0.28168	-0.002289	-0.001068
43.075	-0.004578	0.10407	-0.15747	-0.002136	0.039978	0.1651	0.04303	0.01297	-0.070953	-0.031586	0.022736	-0.007172	-0.43396	-0.18295	0.050659	0.015717	-0.022583	-0.048065	-0.61996	0.031433	0.088959	-0.070343	-0.1474	-0.10696	-0.008698	0.00885	0.09903	0.001373	0.011292	-0.055542	-0.003357	-0.005646
43.076	0.012665	0.06485	-0.15243	0.009918	0.011597	0.14938	0.1387	-0.001678	0.050659	0.06134	0.018921	-0.020447	-0.37918	-0.016022	0.002594	-0.00473	-0.012512	-0.062408	-0.75851	-0.041809	0.098419	-0.05661	-0.14923	-0.083466	-0.015869	0.00473	-0.63049	0.000153	-0.10315	0.067596	-0.006409	-0.00473
43.077	0.028229	0.022888	-0.11826	0.02655	0.017242	0.088043	0.10483	-0.018768	0.11643	0.12161	0.00824	-0.015564	-0.062714	0.18997	-0.007935	0.007935	-0.001984	-0.068054	-0.67902	-0.13779	0.10284	-0.046082	-0.1828	-0.091095	-0.010681	-0.00824	-0.53223	-0.003204	-0.2945	0.14358	-0.002594	-0.017853
43.078	0.029297	0.087433	0.039368	0.011597	0.027618	0.074921	0.11368	-0.019989	0.14969	0.14404	0.017395	-0.016174	0.02243	0.215	-0.010681	0.021515	0.028687	-0.007324	0.045166	-0.012817	0.11093	-0.039215	-0.21316	-0.072327	-0.026093	-0.00946	-0.48675	-0.00061	0.26154	0.23041	0.001984	-0.012054
43.079	0.029602	0.049591	0.040283	-0.016937	0.012207	0.035858	0.12146	-0.012207	0.15472	0.16754	-0.003815	-0.021515	0.11932	0.025635	0.034637	0.025787	0.038147	-0.062714	0.12833	0.41931	0.11856	-0.031281	-0.22201	-0.055237	0.002899	-0.001221	-0.30212	0	0.066223	0.15228	0.001373	-0.011749
43.08	0.020752	0.027313	0.075378	0.021362	0.012054	0.010223	0.079346	-0.004578	0.15152	0.055542	-0.022736	-0.011444	-0.059052	-0.36499	0.04303	0.010986	0.027313	-0.097351	0.42129	0.48569	0.12283	0.00946	-0.20371	-0.080719	-0.006104	-0.00824	-0.14221	-0.001221	-0.023499	0.039673	0.003967	-0.010376
43.081	-0.006256	0.048981	0.045929	0.0354	-0.012207	-0.002899	0.089111	0.009155	0.11139	0.057068	-0.021515	-0.001984	-0.19501	-0.73959	-0.049286	0.003662	0.019379	-0.16861	0.03891	0.25604	0.11734	-0.016327	-0.20645	-0.084534	0.005646	0.000763	-0.1239	-0.002136	0.016937	0.017242	0.004883	-0.006561
43.082	-0.023346	0.050354	0.014954	0.019379	0.030365	-0.004578	0.16251	0.011902	0.048676	0.004883	0.00824	-0.014191	0.033875	-0.40161	0.086517	0.000153	-0.010834	-0.092163	0.60593	0.11017	0.11612	-0.009766	-0.27359	-0.038147	0.02655	0.000916	0.1944	-0.001678	0.082397	0.11246	-0.001068	-0.001984
43.083	-0.025482	0.075531	0.026245	0.015106	0.035553	0.070343	0.19211	0.010681	0.012512	-0.16876	0.024414	-0.005035	-0.14496	0.075684	0.081024	0.024109	-0.024414	-0.040131	0.43335	-0.032501	0.11169	0.013885	-0.34363	-0.051422	0.02655	0.001068	0.37628	-0.001221	0.037384	0.089874	-0.002441	-0.016174
43.084	-0.002136	0.009308	-0.043488	0.00824	-0.087128	0.082092	0.12329	0.02182	-0.039063	-0.1709	0.023193	-0.013428	-0.36301	-0.031738	-0.030365	0.003052	-0.029907	-0.18875	-0.25925	-0.018158	0.10742	-0.019989	-0.35126	-0.020752	0.030365	0.003662	0.24139	-0.006561	0.10284	-0.082245	0.000153	-0.002136
43.085	0.0177	0.049744	0.16739	0.009155	-0.23468	-0.029297	0.089417	0.007477	-0.049744	-0.11322	0.017853	-0.010681	-0.084381	0.15045	-0.10025	-0.002594	-0.040283	-0.17563	-0.83954	-0.012207	0.11414	-0.007019	-0.29556	0.027008	0.03067	0.001984	-0.042725	-0.004272	0.29678	-0.082397	-0.000153	-0.011292
43.086	0.036011	-0.023346	0.041809	0.015106	-0.22568	-0.15732	0.095367	0.015106	-0.071411	-0.21973	0.032501	-0.015717	0.13229	0.31799	0.06424	-0.043793	-0.027161	-0.13123	-0.90118	0.044708	0.13397	0.017242	-0.25635	-0.04303	0.025177	-0.004578	-0.19409	-0.005798	0.34241	-0.010529	-0.001526	-0.005798
43.087	0.03891	-0.001526	-0.007172	0.009155	0.046692	-0.24887	0.058746	0.001373	-0.055237	-0.34286	0.02243	-0.00824	-0.16968	0.32547	0.095825	-0.011749	0.01236	-0.10849	-0.8577	-0.052643	0.12573	0.005493	-0.2533	-0.037079	0.016022	0.000153	-0.31769	-0.000763	-0.2565	-0.010071	0.000763	-0.000763
